# xmcd
#
# Track frame offsets:
#	150
#	15465
#	33150
#	53700
#	65922
#	81857
#	97900
#	113875
#	127717
#	144332
#	165175
#	183340
#	205137
#	226647
#	242302
#	260147
#
# Disc length: 3787 seconds
#
# Revision: 2
# Processed by: cddbd v1.5PL3 Copyright (c) Steve Scherf et al.
# Submitted via: MusicWizard 6.0.2
#
DISCID=be0ec910
DTITLE=Various Artist - Night Feelings - Vol. 2
DYEAR=1900
DGENRE=Eighties
TTITLE0=REO Speedwagon - Keep On Loving You
TTITLE1=Cock Robin - The Promise You Made
TTITLE2=Dolly Parton - The River Unbroken
TTITLE3=Sweethearts Of The Rodeo - Satisfy You
TTITLE4=Willie Nelson - Always On My Mind
TTITLE5=Emotions - A Broken Heart Can Mend
TTITLE6=Thomas Lang - Me and Mrs. Jones
TTITLE7=Johnny Logan - Hold Me Now
TTITLE8=Luther Vandross - So Amazing
TTITLE9=Terence Trent D'Arby - Sign Your Name
TTITLE10=Kokomo - A Little Bit Further Away
TTITLE11=Clarence Clemons duet with Jackson Browne - You're A Friend Of Mine
TTITLE12=Santana - I Love You Much Too Much
TTITLE13=Eighth Wonder - Cross My Heart
TTITLE14='Til Tuesday - What About Love
TTITLE15=Ellen Folley - We Belong To The Night
EXTD=
EXTT0=Reo Speedwagon\n
EXTT1=Cock Robin\n
EXTT2=Dolly Parton\n
EXTT3=Sweethearts Of The Rodeo\n
EXTT4=Willie Nelson\n
EXTT5=Alexander O'Neal\n
EXTT6=Thomas Lang\n
EXTT7=Johnny logan\n
EXTT8=Luther Vandross\n
EXTT9=Terence Trent\n
EXTT10=Kokomo\n
EXTT11=Clarence Clemons, duet with Jackson \nBrowne\n
EXTT12=Santana\n
EXTT13=Eight Wonder\n
EXTT14='Til Tuesday\n
EXTT15=Ellen Foley\n
PLAYORDER=
